<?xml version="1.0" encoding="iso-8859-1"?>
<!-- Generator: Adobe Illustrator 19.0.0, SVG Export Plug-In . SVG Version: 6.00 Build 0)  -->
<svg version="1.1" id="Capa_1" xmlns="http://www.w3.org/2000/svg" xmlns:xlink="http://www.w3.org/1999/xlink" x="0px" y="0px"
	 viewBox="0 0 512 512" style="enable-background:new 0 0 512 512;" xml:space="preserve">
<path style="fill:#5A5F63;" d="M349.552,512H162.448c-8.832,0-16-7.168-16-16V16c0-8.832,7.168-16,16-16h187.104
	c8.832,0,16,7.168,16,16v480C365.552,504.832,358.384,512,349.552,512z"/>
<g>
	<path style="fill:#3F4347;" d="M452.416,194.544h-86.864v122.912h61.264C421.328,276.48,457.904,235.52,452.416,194.544z"/>
	<path style="fill:#3F4347;" d="M452.416,349.92h-86.864v122.912h61.264C421.328,431.856,457.904,390.896,452.416,349.92z"/>
	<path style="fill:#3F4347;" d="M452.416,39.168h-86.864V162.08h61.264C421.328,121.104,457.904,80.144,452.416,39.168z"/>
	<path style="fill:#3F4347;" d="M59.584,194.544h86.864v122.912h-61.28C90.672,276.48,54.096,235.52,59.584,194.544z"/>
	<path style="fill:#3F4347;" d="M59.584,349.92h86.864v122.912h-61.28C90.672,431.856,54.096,390.896,59.584,349.92z"/>
	<path style="fill:#3F4347;" d="M59.584,39.168h86.864V162.08h-61.28C90.672,121.104,54.096,80.144,59.584,39.168z"/>
</g>
<circle style="fill:#E24B4B;" cx="256" cy="120.176" r="53.248"/>
<circle style="fill:#FFD93B;" cx="256" cy="256" r="53.248"/>
<circle style="fill:#8CC63E;" cx="256" cy="391.824" r="53.248"/>
<g>
</g>
<g>
</g>
<g>
</g>
<g>
</g>
<g>
</g>
<g>
</g>
<g>
</g>
<g>
</g>
<g>
</g>
<g>
</g>
<g>
</g>
<g>
</g>
<g>
</g>
<g>
</g>
<g>
</g>
</svg>
